<svg width="64" height="64" viewBox="0 0 64 64" fill="none" xmlns="http://www.w3.org/2000/svg">
<path d="M31.5531 13.7782C31.0241 13.8278 30.1726 14.2659 29.7676 14.704C29.1063 15.3984 28.8914 16.5143 29.2386 17.4401C29.4618 18.0353 29.9743 18.6883 30.4454 18.9776L30.8009 19.1925L30.8091 21.0607V22.9371L26.8662 22.9784C22.047 23.028 21.7081 23.0694 20.3525 23.8546C19.4515 24.3754 18.6249 25.2186 18.1702 26.0782C17.6495 27.095 17.4924 27.7976 17.4428 29.4095L17.3932 30.7899L16.269 30.823C14.7398 30.8643 14.4505 31.0296 14.2769 31.9554C14.1694 32.5423 14.1694 37.7004 14.2769 38.0972C14.4918 38.8742 15.087 39.1552 16.5087 39.1552H17.3932L17.4428 40.9903C17.4676 42.0071 17.5089 42.9411 17.542 43.0817C17.7817 44.272 18.5257 45.5863 19.4101 46.3798C20.2864 47.1651 21.5345 47.7603 22.6257 47.9173C22.9646 47.9669 26.7422 48 31.9499 48C40.2656 48 40.745 48 41.522 47.8429C43.2249 47.5123 44.2333 46.9089 45.2914 45.5698C45.7543 44.9829 46.0849 44.2968 46.2668 43.5115C46.4404 42.7593 46.647 40.0728 46.5644 39.5107L46.5148 39.1552H47.5563C48.4904 39.1552 48.6226 39.1387 48.9946 38.9486C49.7138 38.5849 49.6972 38.6758 49.6972 35.0222C49.6972 32.005 49.689 31.8232 49.5319 31.5173C49.2261 30.9222 49.0525 30.8478 47.7464 30.823L46.5974 30.7899V30.203C46.5974 28.773 46.3081 27.2107 45.8948 26.3841C45.1013 24.7804 43.7291 23.6728 41.9684 23.2099C41.0839 22.9784 40.6045 22.9536 36.6616 22.9536H33.1237V21.069V19.1925L33.4212 18.9942C33.5783 18.8784 33.8759 18.6139 34.0743 18.3907C35.0827 17.2665 35.0083 15.5059 33.9089 14.5387C33.1815 13.9022 32.512 13.679 31.5531 13.7782ZM38.9513 29.4921C39.9349 29.674 40.712 30.294 41.1997 31.2859C41.398 31.6992 41.4311 31.8563 41.4311 32.5423C41.4311 33.2698 41.4063 33.3772 41.1583 33.8815C40.712 34.799 39.7696 35.5099 38.819 35.6421C38.3561 35.7083 37.5626 35.5264 37.1162 35.2454C35.3638 34.1377 35.0414 31.9472 36.4136 30.4675C36.9178 29.922 37.4882 29.5831 38.0751 29.4839C38.2817 29.4508 38.4553 29.4177 38.4636 29.4095C38.4636 29.4095 38.6868 29.4425 38.9513 29.4921ZM26.5521 29.7319C27.2795 30.0873 27.9491 30.823 28.2136 31.5669C28.4037 32.1042 28.3872 33.0962 28.1722 33.5756C27.5771 34.9147 26.3041 35.7165 25.089 35.5181C23.1547 35.2123 22.0222 33.4186 22.6339 31.6165C22.948 30.6742 23.6093 29.955 24.4608 29.6409C25.0724 29.4177 25.99 29.4508 26.5521 29.7319ZM38.8107 40.1885C39.5134 40.825 39.3976 41.9161 38.5793 42.3377C38.2404 42.5113 25.9073 42.5278 25.494 42.346C25.1386 42.1972 24.8079 41.8004 24.7418 41.4367C24.6343 40.8911 24.965 40.1472 25.3866 39.9819C25.4775 39.9405 28.4698 39.9075 32.0243 39.9075L38.4966 39.8992L38.8107 40.1885Z" fill="url(#paint0_linear_191_327)"/>
<path d="M9.84729 24.5903C9.76463 24.6068 9.59104 24.6564 9.47532 24.6977C9.2108 24.8052 0.787619 33.4929 0.25032 34.212C0.0188688 34.5344 -0.0637925 34.9147 0.0519333 35.204C0.134595 35.4272 2.1102 37.6177 4.06927 39.6511C5.22653 40.858 7.11121 42.8667 8.27673 44.1314C9.26866 45.2225 9.30173 45.2308 10.9219 45.1564C12.2362 45.0985 12.5668 44.9828 12.6082 44.5778C12.6495 44.2636 12.5668 43.9743 12.3933 43.7925C12.3189 43.7181 12.013 43.3874 11.7237 43.0733C11.4261 42.7592 10.7566 42.0566 10.2275 41.511C9.6985 40.9655 8.56604 39.7751 7.70637 38.8659C6.84669 37.9566 5.6729 36.7249 5.086 36.1298C4.50738 35.5263 4.02794 34.9973 4.02794 34.9395C4.02794 34.832 4.56524 34.2616 10.1035 28.4919C10.6987 27.8802 11.5005 27.0122 11.9056 26.5659C12.5338 25.8467 12.6247 25.7145 12.6247 25.4499C12.6164 24.8134 12.2362 24.6233 10.955 24.5903C10.4342 24.5737 9.93822 24.5737 9.84729 24.5903Z" fill="url(#paint1_linear_191_327)"/>
<path d="M51.9136 24.7804C51.6987 24.8465 51.6243 24.9209 51.5499 25.1772C51.3681 25.7971 51.1614 25.5409 55.6499 30.36C56.8733 31.6743 58.229 33.1209 58.6671 33.5756C59.0969 34.0302 59.5598 34.5179 59.6921 34.6667L59.9318 34.9312L58.9894 35.9479C58.4687 36.5018 57.766 37.2622 57.4189 37.626C57.0717 37.9897 56.3112 38.808 55.7243 39.4445C54.4927 40.7754 53.2031 42.1393 52.2773 43.0733C51.9219 43.437 51.5913 43.8173 51.5499 43.9247C51.4177 44.2802 51.4673 44.6687 51.6739 44.9167L51.8723 45.1481H53.2775C54.9142 45.1481 54.6249 45.2969 55.9723 43.8256C56.8237 42.8915 58.8985 40.6762 62.0314 37.3449C62.9985 36.3199 63.8499 35.361 63.916 35.2122C64.164 34.6915 64.1558 34.6832 59.5267 29.7731C58.7993 29.0044 57.981 28.1282 57.7082 27.8306C55.9806 25.9459 55.2035 25.1606 54.8068 24.8961C54.5257 24.6977 54.4513 24.6895 53.3437 24.6977C52.6989 24.6977 52.0624 24.7391 51.9136 24.7804Z" fill="url(#paint2_linear_191_327)"/>
<defs>
<linearGradient id="paint0_linear_191_327" x1="14.1963" y1="30.8778" x2="49.6973" y2="30.8778" gradientUnits="userSpaceOnUse">
<stop stop-color="#0F72EB"/>
<stop offset="0.495192" stop-color="#00B0F2"/>
<stop offset="1" stop-color="#0F72EB"/>
</linearGradient>
<linearGradient id="paint1_linear_191_327" x1="0" y1="34.8805" x2="12.6247" y2="34.8805" gradientUnits="userSpaceOnUse">
<stop stop-color="#0F72EB"/>
<stop offset="0.495192" stop-color="#00B0F2"/>
<stop offset="1" stop-color="#0F72EB"/>
</linearGradient>
<linearGradient id="paint2_linear_191_327" x1="51.4756" y1="34.924" x2="63.9997" y2="34.924" gradientUnits="userSpaceOnUse">
<stop stop-color="#0F72EB"/>
<stop offset="0.495192" stop-color="#00B0F2"/>
<stop offset="1" stop-color="#0F72EB"/>
</linearGradient>
</defs>
</svg>
