<svg width="790" height="762" viewBox="0 0 790 762" fill="none" xmlns="http://www.w3.org/2000/svg">
<g filter="url(#filter0_d_140_350)">
<path d="M47.8956 62.6129C13.3601 67.9951 7.34257 97.3727 8.65074 111.389C39.2991 267.995 103.175 594.886 113.491 649.604C123.806 704.323 164.509 710.527 183.571 706.79C252.343 696.511 396.39 675.17 422.404 672.03C456.603 667.903 444.456 623.254 439.223 600.829C404.277 447.213 332.253 129.329 323.731 86.7205C315.209 44.1118 278.319 38.3185 260.939 40.7479C204.315 45.7937 82.4311 57.2308 47.8956 62.6129Z" fill="white"/>
<path d="M262.104 49.0767C269.397 48.0572 281.144 48.784 291.781 54.3081C301.867 59.5456 311.431 69.3077 315.305 87.4976L315.485 88.3696C324.036 131.121 396.1 449.18 431.023 602.694L431.028 602.717L431.033 602.74C433.763 614.438 437.725 629.885 437.198 642.953C436.939 649.39 435.598 654.226 433.311 657.488C431.324 660.321 428.091 662.743 421.995 663.603L421.396 663.681C395.229 666.839 251.004 688.208 182.328 698.472L182.14 698.5L181.953 698.538C174.076 700.082 161.251 699.584 149.428 692.819C138.142 686.361 126.869 673.683 121.982 649.22L121.755 648.046C111.442 593.343 47.6705 266.991 16.9922 110.231C16.5471 104.61 17.5815 95.7963 22.1094 87.978C26.4515 80.4806 34.2368 73.438 48.5059 71.0337L49.1904 70.9224C83.3793 65.5942 204.904 54.1842 261.686 49.1245L261.896 49.106L262.104 49.0767Z" stroke="#0F72EB" stroke-width="16.8192"/>
</g>
<g filter="url(#filter1_d_140_350)">
<path d="M439.622 46.4449L380.194 329.569C365.43 406.564 329.961 572.663 317.402 627.83C304.844 682.997 333.474 699.779 349.359 701.274C397.387 708.936 508.693 727.4 569.691 739.958C630.689 752.517 651.05 726.503 657.151 694.546C691.724 513.459 762.888 140.857 770.961 99.1452C779.034 57.4335 748.162 42.5205 731.716 40.2779C666.495 31.8683 527.194 13.9277 491.762 9.44261C456.329 4.95748 442.238 32.242 439.622 46.4449Z" fill="white"/>
<path d="M439.622 46.4449L380.194 329.569C365.43 406.564 329.961 572.663 317.402 627.83C304.844 682.997 333.474 699.779 349.359 701.274C397.387 708.936 508.693 727.4 569.691 739.958C630.689 752.517 651.05 726.503 657.151 694.546C691.724 513.459 762.888 140.857 770.961 99.1452C779.034 57.4335 748.162 42.5205 731.716 40.2779C666.495 31.8683 527.194 13.9277 491.762 9.44261C456.329 4.95748 442.238 32.242 439.622 46.4449Z" stroke="#0F72EB" stroke-width="16.8192"/>
</g>
<rect x="94.8271" y="67.1774" width="135.988" height="27.9371" rx="7.84898" transform="rotate(-5.67367 94.8271 67.1774)" fill="#0F72EB"/>
<rect x="117.252" y="73.3778" width="70.4213" height="9.66044" rx="4.83022" transform="rotate(-5.67367 117.252 73.3778)" fill="white"/>
<rect x="190.462" y="66.1029" width="18.386" height="9.66044" rx="4.83022" transform="rotate(-5.67367 190.462 66.1029)" fill="white"/>
<rect x="536.546" y="17.8092" width="150.578" height="30.9342" rx="7.84898" transform="rotate(6.82582 536.546 17.8092)" fill="#0F72EB"/>
<rect x="559.303" y="29.8864" width="77.9764" height="10.6968" rx="5.34842" transform="rotate(6.82582 559.303 29.8864)" fill="white"/>
<rect x="640.189" y="39.5665" width="20.3585" height="10.6968" rx="5.34842" transform="rotate(6.82582 640.189 39.5665)" fill="white"/>
<path d="M452.947 332.066C453.441 331.857 453.934 331.66 454.415 331.474C462.765 328.227 471.207 325.225 479.638 322.223C480.081 322.25 480.855 321.782 481.285 321.641C481.936 321.406 482.587 321.182 483.239 320.947C484.493 320.497 485.746 320.059 486.988 319.609C489.494 318.721 491.989 317.833 494.496 316.945C499.498 315.169 504.499 313.392 509.502 311.604C519.505 308.052 529.521 304.488 539.525 300.936C549.528 297.384 559.544 293.82 569.547 290.268C579.551 286.715 589.567 283.152 599.57 279.599C609.574 276.047 619.59 272.483 629.593 268.931C631.818 268.133 634.251 266.893 636.598 266.632C638.571 266.406 640.516 265.855 642.502 265.607C646.269 265.133 650.393 265.102 653.865 266.865C655.064 267.479 656.155 268.303 657.042 269.305C661.288 274.055 660.197 281.352 658.848 287.577C649.452 330.965 640.056 374.365 630.648 417.752C629.364 423.706 627.709 430.224 622.719 433.728C618.497 436.692 612.752 436.695 607.869 435.024C602.987 433.341 598.785 430.189 594.664 427.091C577.572 414.202 560.469 401.312 543.378 388.424C539.314 385.364 534.825 381.415 535.19 376.34C535.404 373.283 537.405 370.672 539.424 368.363C556.17 349.157 579.383 336.686 597.209 318.483C599.724 315.916 601.873 311.132 598.75 309.367C596.893 308.316 594.611 309.445 592.788 310.543C569.861 324.411 546.945 338.292 524.017 352.16C516.537 356.685 508.7 361.332 499.981 362.013C492.18 362.632 484.532 359.998 477.187 357.334C471.029 355.104 464.886 352.827 458.77 350.492C455.518 349.259 452.164 347.934 449.747 345.445C447.33 342.956 446.102 338.946 447.84 335.935C448.931 334.048 450.887 332.934 452.924 332.053L452.947 332.066Z" fill="url(#paint0_linear_140_350)"/>
<path d="M208.436 268.299C211.331 267.454 213.518 267.764 216.116 269.313C220.045 271.671 221.266 277.05 218.794 281.079C218.309 281.878 217.542 282.86 217.123 283.305L216.32 284.083L218.438 295.661L229.329 293.669C241.468 291.448 242.958 291.255 245.811 291.469C251.492 291.903 256.34 294.54 259.686 299.03C261.424 301.342 263.195 305.988 264 310.391L264.331 312.198L267.886 311.652C271.921 310.993 272.497 311.124 273.774 312.784C274.43 313.637 274.558 314.193 276.257 323.481C278.314 334.729 278.314 334.44 276.305 335.965C275.267 336.76 274.869 336.885 271.994 337.411L268.787 337.997L269.14 339.064C269.711 340.748 270.587 349.133 270.477 351.547C270.359 354.067 269.728 356.366 268.633 358.434C266.13 363.152 263.365 365.578 258.309 367.555C256.005 368.476 254.528 368.746 228.929 373.429C212.9 376.361 201.253 378.386 200.178 378.425C196.731 378.556 192.553 377.427 189.413 375.503C186.244 373.558 183.213 369.931 181.805 366.401C181.624 365.987 180.97 363.135 180.321 360.019L179.135 354.398L176.412 354.896C172.035 355.696 170.045 355.166 168.946 352.895C168.391 351.734 165.486 335.855 165.487 333.987C165.5 331.04 166.297 330.368 170.982 329.379L174.424 328.644L173.799 324.367C173.044 319.377 173.132 317.125 174.162 313.701C175.078 310.799 177.148 307.738 179.629 305.627C183.36 302.446 184.38 302.128 199.187 299.261L211.303 296.914L210.246 291.138L209.169 285.391L207.954 284.929C206.34 284.304 204.394 282.583 203.372 280.876C201.782 278.222 201.816 274.664 203.46 272.154C204.461 270.578 206.835 268.749 208.436 268.299ZM147.699 313.809C147.971 313.707 149.497 313.428 151.108 313.185C155.071 312.566 156.349 312.937 156.733 314.891C156.882 315.706 156.677 316.164 155.148 318.732C154.152 320.334 152.173 323.458 150.685 325.676C136.885 346.558 135.551 348.616 135.612 348.947C135.647 349.127 137.42 350.485 139.54 352.015C141.682 353.517 145.988 356.648 149.147 358.963C152.306 361.278 156.462 364.305 158.398 365.687C160.334 367.068 162.791 368.853 163.884 369.653C164.952 370.457 166.08 371.303 166.351 371.49C166.988 371.952 167.404 372.797 167.454 373.787C167.555 375.057 166.602 375.599 162.589 376.517C157.643 377.659 157.536 377.652 153.868 374.852C149.568 371.614 142.635 366.492 138.393 363.428C131.217 358.271 123.901 352.641 123.52 352C123.001 351.175 123.042 349.957 123.573 348.834C124.824 346.315 145.856 314.835 146.613 314.349C146.946 314.157 147.454 313.906 147.699 313.809ZM281.667 292.132C284.811 291.533 285.028 291.517 285.93 291.935C287.195 292.481 289.813 294.31 295.705 298.769C296.635 299.473 299.417 301.539 301.885 303.346C317.599 314.898 317.627 314.918 317.193 316.527C317.083 316.985 315.161 320.154 312.944 323.571C305.77 334.671 301.024 342.048 299.089 345.147C296.023 350.031 296.768 349.458 292.115 350.309L288.12 351.04L287.435 350.485C286.719 349.888 286.376 348.809 286.567 347.729C286.628 347.402 287.371 346.149 288.192 344.93C290.339 341.793 293.296 337.245 296.105 332.82C297.443 330.706 299.179 327.984 299.977 326.769C300.775 325.554 302.377 323.027 303.569 321.182L305.719 317.8L304.901 317.174C304.448 316.819 302.877 315.673 301.419 314.604C299.937 313.539 295.331 310.131 291.169 307.031C275.901 295.664 276.622 296.285 276.816 294.428C276.895 293.661 277.068 293.411 277.645 293.111C278.047 292.916 279.834 292.467 281.667 292.132ZM224.601 348.474C213.659 350.476 204.465 352.262 204.208 352.441C203.004 353.187 202.405 355.663 203.043 357.282C203.451 358.365 204.693 359.4 205.871 359.658C207.246 359.985 245.204 352.989 246.15 352.264C248.432 350.505 248.173 347.08 245.651 345.517L244.522 344.803L224.601 348.474ZM238.513 312.528C238.492 312.559 237.976 312.759 237.359 312.977C235.608 313.613 234.042 314.977 232.797 316.94C229.406 322.268 231.633 328.831 237.651 331.254C239.184 331.868 241.729 331.98 243.117 331.516C245.969 330.573 248.47 327.854 249.327 324.778C249.807 323.087 249.822 322.741 249.412 320.502C249.026 318.39 248.836 317.925 247.992 316.765C245.932 313.986 243.191 312.514 240.061 312.508C239.225 312.505 238.523 312.528 238.513 312.528ZM202.024 320.229C200.136 319.68 197.292 320.096 195.534 321.127C193.09 322.574 191.46 325.16 191.023 328.238C190.155 334.13 194.652 339.014 200.779 338.867C204.631 338.793 208.099 335.608 209.177 331.15C209.568 329.553 209.06 326.49 208.172 324.943C206.939 322.802 204.464 320.913 202.024 320.229Z" fill="url(#paint1_linear_140_350)"/>
<path d="M427.443 646.137C428.186 646.703 428.712 647.413 429.022 648.27C429.352 649.111 429.433 650.029 429.263 651.022C429.007 652.511 428.214 653.681 426.882 654.53C425.568 655.382 424.104 655.67 422.49 655.393L414.562 654.036L417.751 635.414L425.466 636.735C427.062 637.009 428.313 637.697 429.219 638.802C430.129 639.889 430.466 641.115 430.232 642.48C430.096 643.278 429.78 644 429.287 644.646C428.793 645.291 428.178 645.789 427.443 646.137ZM426.213 642.449C426.264 642.148 426.257 641.872 426.19 641.624C426.143 641.36 426.047 641.125 425.9 640.917C425.753 640.709 425.554 640.538 425.303 640.404C425.073 640.255 424.798 640.153 424.479 640.099L421.127 639.525L420.449 643.488L423.8 644.062C424.439 644.172 424.975 644.081 425.408 643.79C425.844 643.481 426.112 643.034 426.213 642.449ZM422.724 651.627C423.38 651.74 423.946 651.636 424.42 651.315C424.895 650.995 425.186 650.524 425.292 649.904C425.395 649.301 425.276 648.769 424.935 648.309C424.594 647.849 424.095 647.563 423.439 647.451L419.875 646.84L419.159 651.017L422.724 651.627Z" fill="url(#paint2_linear_140_350)"/>
<path d="M438.133 658.483C436.661 658.231 435.387 657.675 434.311 656.815C433.235 655.955 432.459 654.892 431.983 653.623C431.527 652.34 431.42 650.99 431.663 649.571C432.037 647.39 433.083 645.707 434.801 644.522C436.519 643.338 438.495 642.937 440.729 643.32C442.946 643.699 444.668 644.733 445.894 646.422C447.12 648.11 447.546 650.045 447.172 652.227C446.802 654.39 445.747 656.072 444.008 657.271C442.29 658.455 440.332 658.859 438.133 658.483ZM438.757 654.838C439.874 655.03 440.85 654.822 441.684 654.217C442.521 653.593 443.038 652.705 443.235 651.553C443.433 650.4 443.239 649.399 442.654 648.55C442.072 647.684 441.214 647.154 440.079 646.959C438.961 646.768 437.984 646.984 437.147 647.608C436.313 648.213 435.798 649.092 435.6 650.245C435.503 650.813 435.501 651.36 435.593 651.887C435.703 652.417 435.898 652.879 436.177 653.274C436.456 653.668 436.81 654.003 437.238 654.277C437.683 654.554 438.189 654.741 438.757 654.838Z" fill="url(#paint3_linear_140_350)"/>
<path d="M456.151 657.598L457.907 657.899L457.315 661.357L454.575 660.888C453.529 660.708 452.65 660.348 451.94 659.807C451.247 659.268 450.762 658.583 450.485 657.75C450.21 656.9 450.164 655.943 450.347 654.879L451.394 648.76L448.787 648.314L448.929 647.489L455.655 642.425L456.374 642.548L455.731 646.299L459.695 646.978L459.162 650.09L455.278 649.425L454.317 655.038C454.199 655.73 454.292 656.303 454.598 656.757C454.924 657.196 455.442 657.476 456.151 657.598Z" fill="url(#paint4_linear_140_350)"/>
<path d="M472.706 664.376C470.542 664.005 468.892 663.139 467.756 661.776C466.642 660.398 466.254 658.716 466.594 656.73L470.664 657.427C470.588 657.87 470.6 658.283 470.699 658.665C470.818 659.033 471.002 659.347 471.249 659.608C471.514 659.873 471.824 660.09 472.178 660.26C472.532 660.43 472.913 660.55 473.321 660.62C474.137 660.76 474.871 660.685 475.523 660.395C476.193 660.108 476.585 659.628 476.701 658.954C476.749 658.67 476.721 658.409 476.616 658.172C476.513 657.918 476.375 657.711 476.201 657.554C476.048 657.382 475.789 657.191 475.423 656.982C475.075 656.777 474.774 656.616 474.52 656.499C474.266 656.383 473.884 656.217 473.373 656.002C472.965 655.822 472.66 655.688 472.456 655.598C472.253 655.508 471.948 655.365 471.544 655.168C471.157 654.974 470.856 654.813 470.641 654.685C470.446 654.542 470.187 654.352 469.863 654.113C469.538 653.875 469.294 653.651 469.129 653.44C468.964 653.229 468.781 652.97 468.578 652.661C468.393 652.356 468.263 652.051 468.187 651.745C468.115 651.423 468.066 651.068 468.041 650.68C468.019 650.275 468.045 649.859 468.118 649.433C468.421 647.66 469.26 646.389 470.633 645.62C472.006 644.851 473.738 644.646 475.831 645.004C477.942 645.366 479.491 646.178 480.479 647.443C481.485 648.711 481.829 650.275 481.51 652.138L477.52 651.454C477.65 650.692 477.474 650.068 476.991 649.584C476.529 649.085 475.899 648.767 475.101 648.63C474.391 648.509 473.745 648.553 473.161 648.764C472.595 648.977 472.264 649.368 472.166 649.935C472.121 650.201 472.142 650.451 472.23 650.685C472.338 650.905 472.469 651.1 472.622 651.273C472.778 651.427 473.03 651.607 473.378 651.813C473.729 652.001 474.023 652.152 474.259 652.265C474.516 652.364 474.891 652.519 475.384 652.731C475.927 652.971 476.333 653.159 476.602 653.296C476.873 653.416 477.259 653.618 477.757 653.905C478.259 654.173 478.636 654.42 478.89 654.646C479.161 654.875 479.466 655.174 479.804 655.542C480.146 655.893 480.384 656.262 480.518 656.65C480.673 657.023 480.779 657.471 480.836 657.991C480.914 658.498 480.904 659.035 480.807 659.602C480.585 660.897 480.067 661.949 479.253 662.759C478.439 663.569 477.472 664.097 476.353 664.343C475.251 664.593 474.036 664.604 472.706 664.376Z" fill="url(#paint5_linear_140_350)"/>
<path d="M490.235 663.435L491.991 663.735L491.399 667.194L488.659 666.724C487.613 666.545 486.734 666.185 486.024 665.643C485.331 665.105 484.846 664.419 484.569 663.587C484.294 662.737 484.248 661.78 484.43 660.715L485.478 654.597L482.871 654.151L483.012 653.326L489.739 648.262L490.458 648.385L489.815 652.136L493.779 652.815L493.246 655.927L489.362 655.262L488.401 660.875C488.282 661.567 488.376 662.14 488.682 662.594C489.008 663.033 489.526 663.313 490.235 663.435Z" fill="url(#paint6_linear_140_350)"/>
<path d="M505.722 668.25C504.298 669.211 502.566 669.517 500.527 669.167C498.505 668.821 496.975 667.948 495.937 666.547C494.917 665.149 494.572 663.484 494.903 661.55L496.325 653.251L500.208 653.916L498.865 661.763C498.688 662.792 498.799 663.641 499.195 664.312C499.612 664.967 500.264 665.371 501.151 665.523C502.055 665.678 502.804 665.514 503.398 665.031C504.013 664.534 504.408 663.771 504.584 662.743L505.928 654.895L509.812 655.56L508.39 663.86C508.056 665.811 507.167 667.274 505.722 668.25Z" fill="url(#paint7_linear_140_350)"/>
<path d="M524.794 652.786L528.678 653.452L525.33 673.004L522.457 672.512L522.21 671.238C520.747 672.101 519.156 672.385 517.436 672.09C515.999 671.844 514.761 671.295 513.721 670.441C512.68 669.587 511.931 668.528 511.472 667.263C511.034 665.983 510.938 664.625 511.184 663.188C511.43 661.752 511.971 660.512 512.807 659.469C513.66 658.428 514.72 657.679 515.985 657.22C517.25 656.761 518.601 656.655 520.037 656.901C521.491 657.15 522.737 657.765 523.774 658.745L524.794 652.786ZM515.755 666.874C516.373 667.746 517.24 668.278 518.357 668.469C519.492 668.664 520.496 668.452 521.368 667.835C522.244 667.2 522.777 666.324 522.969 665.206C523.163 664.071 522.951 663.068 522.334 662.195C521.717 661.323 520.841 660.79 519.706 660.595C518.588 660.404 517.594 660.617 516.721 661.234C515.849 661.851 515.315 662.728 515.121 663.863C514.927 664.998 515.138 666.001 515.755 666.874Z" fill="url(#paint8_linear_140_350)"/>
<path d="M531.832 657.36L532.451 653.742L536.335 654.407L535.716 658.025L531.832 657.36ZM529.044 673.64L531.504 659.275L535.388 659.94L532.928 674.305L529.044 673.64Z" fill="url(#paint9_linear_140_350)"/>
<path d="M543.424 676.513C541.952 676.261 540.678 675.705 539.602 674.846C538.526 673.986 537.75 672.922 537.274 671.654C536.818 670.371 536.712 669.02 536.955 667.602C537.328 665.42 538.374 663.737 540.092 662.553C541.81 661.368 543.786 660.967 546.021 661.35C548.238 661.73 549.959 662.764 551.185 664.452C552.411 666.141 552.837 668.076 552.464 670.257C552.093 672.421 551.038 674.102 549.3 675.302C547.582 676.486 545.623 676.89 543.424 676.513ZM544.048 672.869C545.165 673.06 546.141 672.853 546.975 672.247C547.812 671.624 548.329 670.736 548.527 669.583C548.724 668.43 548.53 667.43 547.945 666.581C547.363 665.715 546.505 665.184 545.37 664.99C544.253 664.799 543.276 665.015 542.439 665.638C541.605 666.244 541.089 667.123 540.892 668.276C540.795 668.843 540.792 669.39 540.884 669.917C540.994 670.447 541.189 670.91 541.468 671.304C541.748 671.699 542.101 672.033 542.529 672.307C542.974 672.585 543.481 672.772 544.048 672.869Z" fill="url(#paint10_linear_140_350)"/>
<defs>
<filter id="filter0_d_140_350" x="0.527176" y="40.2778" width="445.127" height="677.597" filterUnits="userSpaceOnUse" color-interpolation-filters="sRGB">
<feFlood flood-opacity="0" result="BackgroundImageFix"/>
<feColorMatrix in="SourceAlpha" type="matrix" values="0 0 0 0 0 0 0 0 0 0 0 0 0 0 0 0 0 0 127 0" result="hardAlpha"/>
<feOffset dx="-4.48513" dy="6.72769"/>
<feGaussianBlur stdDeviation="1.73799"/>
<feComposite in2="hardAlpha" operator="out"/>
<feColorMatrix type="matrix" values="0 0 0 0 0.13292 0 0 0 0 0.231572 0 0 0 0 0.352915 0 0 0 0.4 0"/>
<feBlend mode="normal" in2="BackgroundImageFix" result="effect1_dropShadow_140_350"/>
<feBlend mode="normal" in="SourceGraphic" in2="effect1_dropShadow_140_350" result="shape"/>
</filter>
<filter id="filter1_d_140_350" x="305.896" y="0.541168" width="483.765" height="761.14" filterUnits="userSpaceOnUse" color-interpolation-filters="sRGB">
<feFlood flood-opacity="0" result="BackgroundImageFix"/>
<feColorMatrix in="SourceAlpha" type="matrix" values="0 0 0 0 0 0 0 0 0 0 0 0 0 0 0 0 0 0 127 0" result="hardAlpha"/>
<feOffset dx="4.48513" dy="5.60641"/>
<feGaussianBlur stdDeviation="2.24256"/>
<feComposite in2="hardAlpha" operator="out"/>
<feColorMatrix type="matrix" values="0 0 0 0 0.13292 0 0 0 0 0.231572 0 0 0 0 0.352915 0 0 0 0.35 0"/>
<feBlend mode="normal" in2="BackgroundImageFix" result="effect1_dropShadow_140_350"/>
<feBlend mode="normal" in="SourceGraphic" in2="effect1_dropShadow_140_350" result="shape"/>
</filter>
<linearGradient id="paint0_linear_140_350" x1="446.996" y1="339.331" x2="655.506" y2="352.316" gradientUnits="userSpaceOnUse">
<stop stop-color="#0F72EB"/>
<stop offset="0.495192" stop-color="#00B0F2"/>
<stop offset="1" stop-color="#0F72EB"/>
</linearGradient>
<linearGradient id="paint1_linear_140_350" x1="120.924" y1="338.711" x2="315.003" y2="303.208" gradientUnits="userSpaceOnUse">
<stop stop-color="#0F72EB"/>
<stop offset="0.495192" stop-color="#00B0F2"/>
<stop offset="1" stop-color="#0F72EB"/>
</linearGradient>
<linearGradient id="paint2_linear_140_350" x1="413.615" y1="646.772" x2="553.578" y2="670.74" gradientUnits="userSpaceOnUse">
<stop stop-color="#0F72EB"/>
<stop offset="0.495192" stop-color="#00B0F2"/>
<stop offset="1" stop-color="#0F72EB"/>
</linearGradient>
<linearGradient id="paint3_linear_140_350" x1="413.615" y1="646.772" x2="553.578" y2="670.74" gradientUnits="userSpaceOnUse">
<stop stop-color="#0F72EB"/>
<stop offset="0.495192" stop-color="#00B0F2"/>
<stop offset="1" stop-color="#0F72EB"/>
</linearGradient>
<linearGradient id="paint4_linear_140_350" x1="413.615" y1="646.772" x2="553.578" y2="670.74" gradientUnits="userSpaceOnUse">
<stop stop-color="#0F72EB"/>
<stop offset="0.495192" stop-color="#00B0F2"/>
<stop offset="1" stop-color="#0F72EB"/>
</linearGradient>
<linearGradient id="paint5_linear_140_350" x1="413.615" y1="646.772" x2="553.578" y2="670.74" gradientUnits="userSpaceOnUse">
<stop stop-color="#0F72EB"/>
<stop offset="0.495192" stop-color="#00B0F2"/>
<stop offset="1" stop-color="#0F72EB"/>
</linearGradient>
<linearGradient id="paint6_linear_140_350" x1="413.615" y1="646.772" x2="553.578" y2="670.74" gradientUnits="userSpaceOnUse">
<stop stop-color="#0F72EB"/>
<stop offset="0.495192" stop-color="#00B0F2"/>
<stop offset="1" stop-color="#0F72EB"/>
</linearGradient>
<linearGradient id="paint7_linear_140_350" x1="413.615" y1="646.772" x2="553.578" y2="670.74" gradientUnits="userSpaceOnUse">
<stop stop-color="#0F72EB"/>
<stop offset="0.495192" stop-color="#00B0F2"/>
<stop offset="1" stop-color="#0F72EB"/>
</linearGradient>
<linearGradient id="paint8_linear_140_350" x1="413.615" y1="646.772" x2="553.578" y2="670.74" gradientUnits="userSpaceOnUse">
<stop stop-color="#0F72EB"/>
<stop offset="0.495192" stop-color="#00B0F2"/>
<stop offset="1" stop-color="#0F72EB"/>
</linearGradient>
<linearGradient id="paint9_linear_140_350" x1="413.615" y1="646.772" x2="553.578" y2="670.74" gradientUnits="userSpaceOnUse">
<stop stop-color="#0F72EB"/>
<stop offset="0.495192" stop-color="#00B0F2"/>
<stop offset="1" stop-color="#0F72EB"/>
</linearGradient>
<linearGradient id="paint10_linear_140_350" x1="413.615" y1="646.772" x2="553.578" y2="670.74" gradientUnits="userSpaceOnUse">
<stop stop-color="#0F72EB"/>
<stop offset="0.495192" stop-color="#00B0F2"/>
<stop offset="1" stop-color="#0F72EB"/>
</linearGradient>
</defs>
</svg>
